<svg xmlns="http://www.w3.org/2000/svg" xmlns:xlink="http://www.w3.org/1999/xlink" version="1.1" id="Layer_1" x="0px" y="0px" width="100%" viewBox="0 0 2400 531" enable-background="new 0 0 2400 531" xml:space="preserve">

<path fill="#5A17DD" opacity="1.000000" stroke="none" d=" M177.531342,1.000000   C179.057083,2.016129 179.936691,3.463687 181.198273,3.982726   C196.529205,10.290123 206.246201,22.020750 211.758423,37.067310   C214.062714,43.357273 214.598770,50.496723 214.855927,57.290924   C215.321609,69.593918 214.975113,81.927650 214.610489,94.993073   C214.374802,105.590721 214.496323,115.443848 214.617844,125.296967   C214.731262,134.873642 214.844681,144.450302 214.696503,154.805176   C213.707352,157.641037 212.979782,159.698669 211.949341,161.867874   C185.808609,176.848602 159.744293,191.340149 134.183105,206.670563   C89.674866,233.364563 87.927750,297.038086 131.449005,324.829407   C157.666046,341.570770 185.279068,356.126007 212.344147,371.739380   C212.423538,371.815125 212.480209,372.027130 212.369049,372.418213   C212.169983,374.965424 212.006592,377.121552 212.005508,379.277710   C211.989853,410.547516 212.059357,441.817566 211.942383,473.086914   C211.919479,479.210052 212.244370,485.631836 210.591049,491.394318   C206.096237,507.060730 196.645874,519.126404 181.619370,526.280518   C177.450226,528.265381 173.208450,530.097656 169.000000,532.000000   C126.979103,532.000000 84.958214,532.000000 42.345772,531.676025   C41.124565,530.844910 40.572868,530.118103 39.853806,529.862976   C23.633379,524.108398 11.737153,513.795288 5.170585,497.604126   C4.555796,496.088257 2.426259,495.186737 1.000005,494.000000   C1.000000,341.645782 1.000000,189.291550 1.334632,36.704620   C2.153957,35.664326 2.605743,34.834736 3.128503,34.052578   C7.677545,27.246292 11.359032,19.558378 17.063332,13.917211   C22.027281,9.008199 29.292238,6.433895 35.493198,2.748482   C35.874008,2.522156 35.840652,1.598958 36.000000,1.000000   C83.020897,1.000000 130.041794,1.000000 177.531342,1.000000  z"/>
<path fill="#211438" opacity="1.000000" stroke="none" d=" M2401.000000,108.531357   C2398.361084,112.502449 2395.684814,115.977570 2393.088867,119.511719   C2376.352051,142.298141 2344.292480,145.556335 2323.355225,127.012016   C2308.465820,113.824196 2304.169189,97.286690 2308.368164,78.826729   C2311.976562,62.963165 2329.512207,45.781548 2347.566895,44.760101   C2359.529297,44.083317 2370.719727,44.744938 2380.889160,51.499744   C2388.212158,56.364056 2393.808350,62.843418 2397.873047,70.647614   C2398.621338,72.084328 2399.502930,73.451706 2400.661621,74.925537   C2401.000000,86.020897 2401.000000,97.041786 2401.000000,108.531357  z"/>
<path fill="#6515E3" opacity="1.000000" stroke="none" d=" M169.449982,532.000000   C173.208450,530.097656 177.450226,528.265381 181.619370,526.280518   C196.645874,519.126404 206.096237,507.060730 210.591049,491.394318   C212.244370,485.631836 211.919479,479.210052 211.942383,473.086914   C212.059357,441.817566 211.989853,410.547516 212.005508,379.277710   C212.006592,377.121552 212.169983,374.965424 212.549744,372.721863   C214.349487,374.014984 215.857407,375.395538 217.365311,376.776123   C216.627380,376.596680 215.889450,376.417236 214.968765,376.193359   C214.968765,408.622589 215.150024,440.841736 214.894073,473.057465   C214.761459,489.751343 210.865372,505.497742 198.480194,517.622131   C194.147690,521.863403 188.375244,524.644470 183.216888,528.026001   C181.331070,529.262268 179.319336,530.306396 177.682526,531.719116   C175.299988,532.000000 172.599976,532.000000 169.449982,532.000000  z"/>
<path fill="#000000" opacity="1.000000" stroke="none" d=" M35.531342,1.000000   C35.840652,1.598958 35.874008,2.522156 35.493198,2.748482   C29.292238,6.433895 22.027281,9.008199 17.063332,13.917211   C11.359032,19.558378 7.677545,27.246292 3.128503,34.052578   C2.605743,34.834736 2.153957,35.664326 1.334632,36.235962   C1.000000,24.406746 1.000000,12.813491 1.000000,1.000000   C12.353279,1.000000 23.707981,1.000000 35.531342,1.000000  z"/>
<path fill="#000000" opacity="1.000000" stroke="none" d=" M35.000000,532.000000   C23.740093,532.000000 12.480186,532.000000 1.000000,532.000000   C1.000000,520.980103 1.000000,509.958710 1.273971,498.144836   C3.225362,500.256165 4.904092,503.159210 6.579990,506.063904   C12.840562,516.914856 21.889536,524.612366 33.221706,529.786804   C33.990940,530.138062 34.415260,531.244690 35.000000,532.000000  z"/>
<path fill="#6515E3" opacity="1.000000" stroke="none" d=" M35.437500,532.000000   C34.415260,531.244690 33.990940,530.138062 33.221706,529.786804   C21.889536,524.612366 12.840562,516.914856 6.579990,506.063904   C4.904092,503.159210 3.225362,500.256165 1.273971,497.676147   C1.000000,496.933319 1.000000,495.866669 1.000005,494.399994   C2.426259,495.186737 4.555796,496.088257 5.170585,497.604126   C11.737153,513.795288 23.633379,524.108398 39.853806,529.862976   C40.572868,530.118103 41.124565,530.844910 41.877113,531.676025   C39.958332,532.000000 37.916668,532.000000 35.437500,532.000000  z"/>
<path fill="#F98F03" opacity="1.000000" stroke="none" d=" M217.701797,376.986237   C215.857407,375.395538 214.349487,374.014984 212.660889,372.330750   C212.480209,372.027130 212.423538,371.815125 212.456863,371.226196   C212.517105,301.832153 212.545151,233.027054 212.557709,164.221970   C212.557846,163.400101 212.358459,162.578186 212.252228,161.756302   C212.979782,159.698669 213.707352,157.641037 214.620636,155.265472   C215.344513,159.168213 217.859421,156.155777 218.749405,155.648453   C226.304214,151.342041 233.649414,146.669876 241.170090,142.301239   C255.990524,133.692307 270.865234,125.176292 285.751129,116.680748   C300.302887,108.375900 314.910339,100.168633 329.466583,91.871597   C338.091431,86.955467 346.691559,81.994705 355.254517,76.971642   C368.468292,69.220383 381.515259,61.175720 394.862762,53.663818   C410.999268,44.582294 426.814056,34.545036 443.863586,27.617456   C453.705078,23.618645 465.243103,23.051941 476.905975,25.483866   C488.326538,27.865265 498.757507,31.301670 507.881378,38.191151   C513.293030,42.277500 517.835571,47.514904 522.653503,52.659882   C522.633423,54.161774 522.340271,55.516911 522.882446,56.273506   C530.810730,67.338020 534.825439,79.932739 534.852600,93.238861   C535.088684,209.045868 535.109619,324.853851 534.812317,440.660553   C534.781067,452.832825 531.410339,464.720093 523.805542,474.833038   C520.241638,479.572327 516.591858,484.247070 512.647461,489.038055   C501.482788,497.758301 489.668152,504.786011 475.582489,505.381836   C465.246460,505.819031 454.537109,505.528076 444.535706,503.217438   C436.519775,501.365479 429.139435,496.303467 421.788544,492.118835   C400.427094,479.958344 379.239807,467.492371 357.951324,455.203186   C333.209625,440.920685 308.448273,426.672119 283.665619,412.460846   C270.255615,404.771027 256.805481,397.150024 243.301727,389.626770   C242.091843,388.952698 240.352737,389.228546 238.859421,389.063232   C238.616684,389.002136 238.373947,388.941010 237.917542,388.412506   C236.750076,387.639465 235.796280,387.333801 234.842499,387.028076   C229.241089,383.750854 223.639679,380.473602 217.701797,376.986237  M296.716461,310.239075   C304.943359,323.504425 315.864471,333.778931 329.811554,340.975372   C340.928680,346.711548 352.553436,350.545807 365.039307,350.861145   C373.992004,351.087280 382.719025,349.423523 391.553467,347.250214   C407.133850,343.417419 419.549103,334.649506 430.206177,323.768677   C438.862549,314.930573 445.481720,304.050262 449.011292,291.869385   C449.959442,291.079254 451.318390,290.469421 451.762421,289.457977   C452.481628,287.819763 452.588501,285.915344 452.974182,284.127716   C459.194275,255.296036 451.962433,229.585983 432.394684,208.282761   C406.602570,180.203156 367.770386,170.884338 331.654480,188.451065   C300.026855,203.834702 283.702362,229.894516 282.017212,265.013763   C281.409424,277.680542 284.214142,289.821014 289.155273,301.371735   C290.547760,304.626892 293.721344,307.120148 296.716461,310.239075  z"/>
<path fill="#211438" opacity="1.000000" stroke="none" d=" M1744.174194,276.125854   C1743.397339,250.037003 1716.894165,228.103333 1693.279297,227.846497   C1678.464111,227.685364 1665.452637,231.062683 1653.901001,240.373459   C1641.084229,250.704025 1634.178711,264.113495 1634.095581,280.405457   C1633.831787,332.062531 1634.002563,383.721802 1633.999146,435.380219   C1633.998535,444.009430 1633.983765,444.016296 1625.421631,444.019470   C1604.758423,444.027161 1584.093994,443.917572 1563.432617,444.113464   C1558.626099,444.159027 1556.942017,442.406403 1556.949707,437.716370   C1557.035278,385.225494 1556.844727,332.733521 1557.119385,280.243896   C1557.196655,265.465637 1559.156006,250.830490 1564.858765,236.920059   C1573.162476,216.665894 1585.719849,199.820221 1603.551514,186.918121   C1617.478394,176.841232 1632.717773,169.587479 1649.459961,166.024292   C1667.382202,162.209900 1685.510498,161.295441 1703.915283,162.719238   C1720.459717,163.999130 1736.135376,167.906235 1750.562622,175.621109   C1760.132935,180.738770 1768.686768,187.785461 1777.553345,194.166153   C1779.232666,195.374664 1780.243896,197.511505 1780.926636,198.395660   C1791.135864,191.360275 1800.034424,184.745819 1809.402466,178.881607   C1824.746704,169.276382 1841.720825,164.639603 1859.721313,162.872437   C1878.759521,161.003418 1897.559570,162.090714 1916.189331,165.925613   C1932.132935,169.207581 1946.731934,175.813446 1960.179443,185.075195   C1974.098267,194.661621 1985.271973,206.717941 1993.764893,221.264038   C2001.136719,233.890305 2005.305786,247.682434 2007.892090,261.974640   C2008.567871,265.708923 2008.931152,269.553040 2008.935791,273.347351   C2008.999023,325.839020 2008.968994,378.330811 2008.993652,430.822571   C2008.994629,432.803070 2009.134277,434.820038 2009.523438,436.756927   C2010.615234,442.191498 2009.403442,443.998505 2003.981934,444.011566   C1981.818970,444.064911 1959.654907,443.918945 1937.493530,444.109344   C1932.375488,444.153351 1931.930420,441.525269 1931.935669,437.517609   C1932.002563,386.192505 1931.280640,334.853943 1932.255737,283.547241   C1932.811768,254.288528 1910.071411,232.334351 1888.143066,228.585251   C1855.772339,223.050873 1827.595581,243.656631 1822.208252,272.253021   C1821.964111,273.548920 1822.057983,274.908508 1821.744141,277.005432   C1821.331299,279.082092 1821.027954,280.391724 1821.026855,281.701599   C1820.988525,331.474060 1820.969482,381.246521 1821.002930,431.018982   C1821.003906,432.622162 1821.579956,434.224945 1821.888062,435.827911   C1822.129761,443.746552 1821.848755,444.027374 1813.989990,444.025299   C1793.012451,444.019684 1772.034912,444.036743 1751.057373,444.017181   C1744.453125,444.011047 1744.104248,443.630005 1744.039062,436.847382   C1744.013428,434.184235 1744.070435,431.520264 1744.308838,428.041931   C1744.685913,425.915863 1744.981689,424.604614 1744.982422,423.293274   C1745.006958,375.850342 1745.012085,328.407440 1744.969727,280.964539   C1744.968384,279.351410 1744.451050,277.738739 1744.174194,276.125854  z"/>
<path fill="#211438" opacity="1.000000" stroke="none" d=" M997.272705,222.229736   C981.579956,246.333069 966.124878,270.164185 950.641724,293.976990   C948.382446,297.451782 947.862183,300.378418 950.462341,304.391327   C965.829834,328.109100 980.822998,352.069336 995.963135,375.934570   C1008.594299,395.844666 1021.280762,415.719696 1033.861938,435.661285   C1035.171021,437.736084 1035.930542,440.157471 1036.944946,442.418121   C1034.288818,442.960144 1031.634888,443.960419 1028.976196,443.972900   C1003.812378,444.090881 978.647278,443.964325 953.483704,444.114227   C949.271606,444.139343 946.969055,442.605499 944.811951,438.979584   C933.002319,419.128113 920.879944,399.462677 908.860474,379.736115   C901.511658,367.675049 894.033752,355.690063 886.872803,343.518524   C884.639282,339.722260 882.293396,337.716003 877.502808,337.876617   C865.683594,338.272888 853.836426,338.240082 842.013184,337.916168   C837.057373,337.780365 835.857788,339.551331 835.884644,344.231659   C836.061646,375.061371 835.986694,405.892578 835.980469,436.723297   C835.979004,444.027771 835.955444,444.024841 828.814270,444.025848   C807.982849,444.028748 787.151489,444.039551 766.320068,444.035645   C759.405029,444.034332 759.030701,443.712067 759.028259,436.617920   C759.003723,365.124664 759.001770,293.631439 759.000061,222.138184   C758.998840,167.810226 759.013245,113.482269 759.004761,59.154316   C759.003479,51.066788 758.963196,51.056705 766.879456,51.054558   C787.877686,51.048862 808.877380,51.187645 829.872925,50.951572   C834.715637,50.897114 836.080383,52.406761 836.071045,57.188786   C835.936829,126.182701 835.980042,195.176971 835.979553,264.171143   C835.979492,271.954742 835.976196,271.973450 843.903870,271.988312   C854.902405,272.008881 865.901855,271.923706 876.899048,272.045898   C880.193970,272.082520 882.186279,271.132050 884.099304,268.093018   C900.273743,242.399155 916.729797,216.882706 933.067810,191.291580   C937.070435,185.022079 940.811890,178.580414 944.982178,172.427185   C946.032654,170.877335 948.267334,169.177643 949.969910,169.164948   C975.798828,168.972351 1001.629822,169.045746 1027.460327,169.085663   C1028.082520,169.086624 1028.704102,169.418045 1030.490356,169.927292   C1020.262573,188.101135 1008.265137,204.650833 997.272705,222.229736  z"/>
<path fill="#211438" opacity="1.000000" stroke="none" d=" M2204.980713,168.953308   C2221.043945,167.723450 2235.611572,171.417221 2248.408691,181.608231   C2262.422852,192.768524 2271.056885,206.990784 2273.989014,224.687134   C2275.840088,235.861588 2275.574219,246.926849 2271.864502,257.679626   C2266.530029,273.142853 2256.308350,284.991730 2243.103271,294.200104   C2227.181641,305.303131 2210.964111,315.983337 2194.834961,326.786987   C2176.219727,339.255676 2157.545654,351.635986 2138.938721,364.116943   C2136.184814,365.964355 2133.499512,367.985107 2131.103760,370.263489   C2130.050293,371.265289 2128.992188,373.410431 2129.392334,374.503479   C2129.902588,375.897949 2131.739502,377.129395 2133.278320,377.731842   C2134.744141,378.305695 2136.562012,378.041351 2138.225098,378.041504   C2163.891357,378.043518 2189.561035,377.755280 2215.222656,378.099121   C2238.070801,378.405243 2258.320312,385.447876 2273.743652,403.282074   C2282.235352,413.101044 2287.425049,424.725464 2288.739502,437.407593   C2290.328369,452.744629 2290.283447,468.249268 2291.014404,483.678101   C2291.190674,487.394714 2289.923584,489.159607 2285.892822,489.130707   C2267.590576,488.999359 2249.286865,489.078583 2230.983643,489.046204   C2224.881592,489.035400 2224.096680,488.253265 2224.054443,482.091431   C2223.998291,473.925415 2224.121826,465.757599 2224.010254,457.592712   C2223.896973,449.294525 2218.450439,444.013275 2210.188721,444.013000   C2177.356201,444.011871 2144.513184,444.532867 2111.694092,443.876923   C2084.124512,443.325928 2064.515137,429.566284 2052.293457,404.840302   C2045.920166,391.946564 2044.336182,378.257721 2046.364868,364.535309   C2048.635010,349.178345 2056.038330,335.666229 2068.413086,326.050751   C2082.422852,315.164703 2097.209473,305.262756 2111.828857,295.180389   C2134.516357,279.533936 2157.348389,264.096436 2180.119873,248.571442   C2182.999268,246.608231 2185.907227,244.685928 2188.759277,242.683517   C2192.981934,239.718597 2193.051514,238.521896 2189.006348,233.956650   C2186.638428,232.871384 2184.622803,232.059738 2182.605957,232.056213   C2141.426758,231.984299 2100.247803,232.004745 2059.068604,232.006760   C2059.047607,212.932755 2059.107666,193.858063 2058.941895,174.785309   C2058.905029,170.534119 2060.306885,168.788834 2064.690674,168.936020   C2071.814453,169.175186 2078.952881,168.985855 2087.021729,168.979980   C2126.965820,168.972794 2165.973389,168.963058 2204.980713,168.953308  z"/>
<path fill="#211438" opacity="1.000000" stroke="none" d=" M1324.748779,324.688202   C1325.002808,341.574371 1330.428589,356.530090 1342.807983,368.154205   C1360.779785,385.029358 1382.398315,389.132507 1404.756104,380.121887   C1424.917969,371.996246 1438.287231,356.643585 1440.149292,333.570282   C1440.200928,332.929443 1440.546387,332.312317 1441.273193,331.148987   C1442.192749,328.741425 1442.941895,326.869507 1442.944336,324.996613   C1443.008179,275.239044 1443.006592,225.481339 1442.951050,175.723755   C1442.948853,173.800507 1442.302612,171.877975 1441.956543,169.955124   C1443.713989,169.636307 1445.470459,169.045197 1447.228882,169.040070   C1468.894775,168.976868 1490.562500,169.132477 1512.226074,168.895340   C1516.973755,168.843384 1518.081055,170.485931 1518.072388,174.928711   C1517.967285,229.093658 1518.430786,283.263855 1517.764526,337.420654   C1517.596558,351.070282 1513.692871,364.537415 1507.974609,377.318054   C1497.651611,400.390869 1481.522705,418.155945 1460.118652,431.234528   C1445.469849,440.185425 1429.464355,445.989227 1412.473145,447.821259   C1397.478638,449.437988 1382.223877,450.636871 1367.222656,449.728302   C1344.637451,448.360382 1322.903198,442.137604 1303.746826,429.729980   C1278.831665,413.592529 1261.509277,391.529053 1253.387329,362.369171   C1249.724243,349.217041 1248.143799,336.007904 1248.088867,322.576202   C1247.889404,273.744965 1247.997314,224.912491 1247.979248,176.080475   C1247.976685,169.203812 1248.125977,169.004700 1254.911133,169.001877   C1275.577271,168.993271 1296.243408,168.999054 1316.909546,169.004456   C1325.084473,169.006592 1325.084473,169.012848 1324.666870,178.200836   C1324.302979,188.990707 1324.174561,198.985367 1324.046143,208.980026   C1324.038940,237.012619 1324.031982,265.045227 1324.020264,294.014618   C1324.010010,297.109589 1323.947144,299.269409 1324.009399,301.425629   C1324.232910,309.180481 1324.498901,316.934113 1324.748779,324.688202  z"/>
<path fill="#211438" opacity="1.000000" stroke="none" d=" M1199.972778,168.956024   C1203.770874,168.731750 1207.571411,168.541504 1211.366333,168.272598   C1214.481812,168.051849 1216.882690,169.153198 1216.878052,172.471832   C1216.850830,192.436768 1216.646729,212.401474 1215.937500,232.479248   C1214.740112,232.415009 1214.107422,232.084122 1213.473877,232.082840   C1192.925293,232.041290 1172.376465,231.980743 1151.829224,232.138947   C1150.552002,232.148788 1149.288086,233.913574 1148.018066,234.861877   C1140.789795,237.727463 1137.886230,242.948029 1137.907104,250.794800   C1138.072021,312.592224 1138.000488,374.390259 1137.996826,436.188110   C1137.996338,444.058746 1137.983398,444.035858 1130.363525,444.031433   C1109.375732,444.019287 1088.385986,443.880737 1067.401245,444.133820   C1062.243896,444.196014 1060.914062,442.400757 1060.923218,437.485229   C1061.046265,371.523376 1060.580811,305.557281 1061.192627,239.600922   C1061.443604,212.545868 1073.475708,190.881134 1097.595825,177.444977   C1107.154053,172.120529 1117.863037,169.110855 1129.092651,169.056427   C1133.423340,169.035431 1137.753906,169.004639 1143.021240,168.980804   C1162.629395,168.974197 1181.301147,168.965103 1199.972778,168.956024  z"/>
<path fill="#211438" opacity="1.000000" stroke="none" d=" M2380.845947,169.001526   C2381.656006,169.001328 2381.989258,169.004852 2382.322510,169.000549   C2393.011719,168.862213 2393.027100,168.862091 2393.027344,180.050995   C2393.030029,265.520142 2393.027588,350.989288 2393.020996,436.458435   C2393.020508,444.034637 2393.002197,444.032440 2385.673828,444.031891   C2364.681641,444.030304 2343.689697,444.034119 2322.697510,444.028229   C2316.246338,444.026428 2316.014404,443.808044 2316.014404,437.219147   C2316.015137,349.750580 2316.058105,262.281952 2315.937256,174.813583   C2315.930664,170.164124 2317.346436,168.858414 2321.891113,168.908417   C2341.381592,169.122910 2360.876221,169.000931 2380.845947,169.001526  z"/>
<path fill="#F69B04" opacity="1.000000" stroke="none" d=" M512.981018,488.951050   C516.591858,484.247070 520.241638,479.572327 523.805542,474.833038   C531.410339,464.720093 534.781067,452.832825 534.812317,440.660553   C535.109619,324.853851 535.088684,209.045868 534.852600,93.238861   C534.825439,79.932739 530.810730,67.338020 522.882446,56.273506   C522.340271,55.516911 522.633423,54.161774 522.811768,52.966721   C532.746765,66.097198 537.132141,80.735252 537.097900,97.310219   C536.859070,213.109009 537.071228,328.908752 536.783203,444.707336   C536.766357,451.480072 534.288208,458.484283 531.837341,464.957458   C528.213989,474.527679 522.099121,482.680542 514.226868,489.753632   C513.494446,489.452698 513.237732,489.201874 512.981018,488.951050  z"/>
<path fill="#FEA802" opacity="1.000000" stroke="none" d=" M512.647461,489.038055   C513.237732,489.201874 513.494446,489.452698 513.919800,489.912903   C506.566620,496.667297 498.159180,501.780334 488.607025,504.629608   C483.231537,506.233032 477.625824,507.324402 472.046051,507.931946   C458.426300,509.414917 445.249451,507.433197 433.044342,500.998230   C424.097961,496.281494 415.389160,491.111206 406.608948,486.082886   C393.976715,478.848572 381.364380,471.579254 368.764679,464.288452   C356.062378,456.938293 343.425201,449.474762 330.683655,442.193573   C322.712036,437.638092 314.510223,433.482849 306.571594,428.872711   C293.298065,421.164520 280.196411,413.160675 266.937836,405.426239   C257.755310,400.069580 248.430557,394.956635 239.014374,389.399048   C240.352737,389.228546 242.091843,388.952698 243.301727,389.626770   C256.805481,397.150024 270.255615,404.771027 283.665619,412.460846   C308.448273,426.672119 333.209625,440.920685 357.951324,455.203186   C379.239807,467.492371 400.427094,479.958344 421.788544,492.118835   C429.139435,496.303467 436.519775,501.365479 444.535706,503.217438   C454.537109,505.528076 465.246460,505.819031 475.582489,505.381836   C489.668152,504.786011 501.482788,497.758301 512.647461,489.038055  z"/>
<path fill="#281F4A" opacity="1.000000" stroke="none" d=" M1441.719482,170.298798   C1442.302612,171.877975 1442.948853,173.800507 1442.951050,175.723755   C1443.006592,225.481339 1443.008179,275.239044 1442.944336,324.996613   C1442.941895,326.869507 1442.192749,328.741425 1441.453369,330.780579   C1441.090210,278.826324 1441.062012,226.705276 1441.058960,174.584229   C1441.058838,173.270309 1441.334961,171.956390 1441.719482,170.298798  z"/>
<path fill="#2F194A" opacity="1.000000" stroke="none" d=" M2059.285156,232.323334   C2100.247803,232.004745 2141.426758,231.984299 2182.605957,232.056213   C2184.622803,232.059738 2186.638428,232.871384 2188.822266,233.657455   C2148.397949,234.004074 2107.805420,234.024551 2067.213379,233.937744   C2064.641846,233.932251 2062.072266,233.091873 2059.285156,232.323334  z"/>
<path fill="#430043" opacity="1.000000" stroke="none" d=" M1821.915771,435.376678   C1821.579956,434.224945 1821.003906,432.622162 1821.002930,431.018982   C1820.969482,381.246521 1820.988525,331.474060 1821.026855,281.701599   C1821.027954,280.391724 1821.331299,279.082092 1821.718506,277.440002   C1821.943604,329.713562 1821.943481,382.319489 1821.915771,435.376678  z"/>
<path fill="#2E002E" opacity="1.000000" stroke="none" d=" M1744.130127,276.579529   C1744.451050,277.738739 1744.968384,279.351410 1744.969727,280.964539   C1745.012085,328.407440 1745.006958,375.850342 1744.982422,423.293274   C1744.981689,424.604614 1744.685913,425.915863 1744.323242,427.571960   C1744.107910,377.622253 1744.097046,327.327728 1744.130127,276.579529  z"/>
<path fill="#2F194A" opacity="1.000000" stroke="none" d=" M1148.413940,234.743088   C1149.288086,233.913574 1150.552002,232.148788 1151.829224,232.138947   C1172.376465,231.980743 1192.925293,232.041290 1213.473877,232.082840   C1214.107422,232.084122 1214.740112,232.415009 1215.717163,232.834854   C1214.148804,233.389725 1212.237549,233.966492 1210.324219,233.973190   C1191.774780,234.038177 1173.224854,233.989151 1154.675293,234.031494   C1152.719727,234.035950 1150.764893,234.417633 1148.413940,234.743088  z"/>
<path fill="#000080" opacity="1.000000" stroke="none" d=" M2204.687988,168.654999   C2165.973389,168.963058 2126.965820,168.972794 2087.491943,168.968307   C2088.258301,168.637283 2089.490723,168.045258 2090.723877,168.043686   C2127.796387,167.996536 2164.868896,168.005508 2201.941406,168.024231   C2202.759277,168.024643 2203.577393,168.241028 2204.687988,168.654999  z"/>
<path fill="#000080" opacity="1.000000" stroke="none" d=" M1199.681885,168.656769   C1181.301147,168.965103 1162.629395,168.974197 1143.491089,168.969086   C1143.591187,168.664795 1144.158691,168.120102 1144.724731,168.121521   C1162.946899,168.167679 1181.168945,168.266556 1199.681885,168.656769  z"/>
<path fill="#000080" opacity="1.000000" stroke="none" d=" M1324.344482,208.687668   C1324.174561,198.985367 1324.302979,188.990707 1324.605469,178.658905   C1324.734009,188.346268 1324.688477,198.370789 1324.344482,208.687668  z"/>
<path fill="#000080" opacity="1.000000" stroke="none" d=" M1324.820923,324.249207   C1324.498901,316.934113 1324.232910,309.180481 1324.009399,301.425629   C1323.947144,299.269409 1324.010010,297.109589 1324.030762,294.484253   C1324.363892,297.208466 1324.900757,300.396149 1324.954712,303.591980   C1325.068115,310.329132 1324.928711,317.070526 1324.820923,324.249207  z"/>
<path fill="#FF00FF" opacity="1.000000" stroke="none" d=" M214.788666,124.825363   C214.496323,115.443848 214.374802,105.590721 214.562286,95.472626   C214.900681,104.923019 214.930084,114.638390 214.788666,124.825363  z"/>
<path fill="#FEA802" opacity="1.000000" stroke="none" d=" M234.931915,387.307251   C235.796280,387.333801 236.750076,387.639465 237.613724,388.191864   C236.689499,388.154510 235.855423,387.870422 234.931915,387.307251  z"/>
<path fill="#221538" opacity="1.000000" stroke="none" d=" M211.949326,161.867874   C212.358459,162.578186 212.557846,163.400101 212.557709,164.221970   C212.545151,233.027054 212.517105,301.832153 212.377472,371.150421   C185.279068,356.126007 157.666046,341.570770 131.449005,324.829407   C87.927750,297.038086 89.674866,233.364563 134.183105,206.670563   C159.744293,191.340149 185.808609,176.848602 211.949326,161.867874  z"/>
<path fill="#000000" opacity="1.000000" stroke="none" d=" M448.520416,291.576965   C445.481720,304.050262 438.862549,314.930573 430.206177,323.768677   C419.549103,334.649506 407.133850,343.417419 391.553467,347.250214   C382.719025,349.423523 373.992004,351.087280 365.039307,350.861145   C352.553436,350.545807 340.928680,346.711548 329.811554,340.975372   C315.864471,333.778931 304.943359,323.504425 296.341583,309.739136   C293.122955,302.430634 289.375671,295.847046 287.613251,288.769196   C283.192322,271.015137 283.284637,253.339325 290.253174,235.913177   C294.830750,224.466003 301.326721,214.610947 310.311005,206.244354   C329.706665,188.182205 352.128204,179.648621 378.927307,182.865051   C395.792664,184.889221 410.374329,191.639160 422.842163,202.571182   C436.770416,214.783829 446.404449,229.586563 450.512085,248.381592   C453.334473,261.295746 452.945831,273.469971 450.115540,286.313507   C450.094208,287.099060 450.145050,287.549835 450.121063,288.296448   C449.537628,289.587189 449.029022,290.582062 448.520416,291.576965  z"/>
<path fill="#FEA802" opacity="1.000000" stroke="none" d=" M448.765869,291.723175   C449.029022,290.582062 449.537628,289.587189 450.257416,288.114380   C450.374969,287.083923 450.281342,286.531342 450.187683,285.978760   C452.945831,273.469971 453.334473,261.295746 450.512085,248.381592   C446.404449,229.586563 436.770416,214.783829 422.842163,202.571182   C410.374329,191.639160 395.792664,184.889221 378.927307,182.865051   C352.128204,179.648621 329.706665,188.182205 310.311005,206.244354   C301.326721,214.610947 294.830750,224.466003 290.253174,235.913177   C283.284637,253.339325 283.192322,271.015137 287.613251,288.769196   C289.375671,295.847046 293.122955,302.430634 296.022339,309.601044   C293.721344,307.120148 290.547760,304.626892 289.155273,301.371735   C284.214142,289.821014 281.409424,277.680542 282.017212,265.013763   C283.702362,229.894516 300.026855,203.834702 331.654480,188.451065   C367.770386,170.884338 406.602570,180.203156 432.394684,208.282761   C451.962433,229.585983 459.194275,255.296036 452.974182,284.127716   C452.588501,285.915344 452.481628,287.819763 451.762421,289.457977   C451.318390,290.469421 449.959442,291.079254 448.765869,291.723175  z"/>
<path fill="#F98F03" opacity="1.000000" stroke="none" d=" M450.115540,286.313507   C450.281342,286.531342 450.374969,287.083923 450.332275,287.818573   C450.145050,287.549835 450.094208,287.099060 450.115540,286.313507  z"/>
</svg>