<svg width="1000" height="155" viewBox="0 0 1000 155" fill="none" xmlns="http://www.w3.org/2000/svg">
<g clip-path="url(#clip0_2044_5002)">
<path d="M189.656 22.5938H208.24L233.74 100.774L257.852 22.5938H270.908L295.024 100.774L320.52 22.5938H339.108L301.936 130.11H289.192L264.46 53.4657L239.592 130.11H226.828L189.656 22.5938Z" fill="black"/>
<path d="M331.422 94.323C331.422 73.279 344.782 56.691 367.054 56.691C371.467 56.5207 375.849 57.4914 379.777 59.5094C383.705 61.5274 387.046 64.5245 389.478 68.211V58.535H406.222V130.111H389.478V120.435C386.887 124.071 383.449 127.02 379.462 129.027C375.474 131.035 371.057 132.04 366.594 131.955C343.554 131.955 331.422 115.367 331.422 94.323ZM390.25 94.323C390.25 82.035 383.338 71.591 369.05 71.591C355.994 71.591 348.162 81.267 348.162 94.323C348.162 107.379 356.002 117.055 369.05 117.055C383.338 117.055 390.25 106.611 390.25 94.323Z" fill="black"/>
<path d="M423.734 35.8072C423.734 32.5079 425.045 29.3437 427.378 27.0108C429.711 24.6778 432.875 23.3672 436.174 23.3672C439.474 23.3672 442.638 24.6778 444.971 27.0108C447.304 29.3437 448.614 32.5079 448.614 35.8072C448.614 39.1065 447.304 42.2706 444.971 44.6036C442.638 46.9365 439.474 48.2472 436.174 48.2472C432.875 48.2472 429.711 46.9365 427.378 44.6036C425.045 42.2706 423.734 39.1065 423.734 35.8072ZM427.734 58.5392H444.478V130.115H427.726L427.734 58.5392Z" fill="black"/>
<path d="M535.394 22.5938V130.11H518.654V120.434C516.063 124.069 512.625 127.018 508.637 129.026C504.65 131.033 500.233 132.038 495.77 131.954C472.73 131.954 460.594 115.366 460.594 94.3217C460.594 73.2777 473.958 56.6898 496.23 56.6898C500.643 56.5198 505.025 57.4907 508.953 59.5087C512.881 61.5267 516.222 64.5235 518.654 68.2097V22.5938H535.394ZM519.422 94.3217C519.422 82.0337 512.51 71.5898 498.222 71.5898C485.166 71.5898 477.33 81.2657 477.33 94.3217C477.33 107.378 485.166 117.054 498.222 117.054C512.51 117.054 519.422 106.61 519.422 94.3217Z" fill="black"/>
<path d="M546.906 58.5391H565.334L580.234 105.847L595.746 58.5391H613.874L629.386 105.847L644.286 58.5391H662.718L636.298 130.115H622.166L604.798 79.1231L587.442 130.115H573.31L546.906 58.5391Z" fill="black"/>
<path d="M670.234 35.8068C670.293 32.5457 671.629 29.4378 673.956 27.1522C676.283 24.8666 679.415 23.5859 682.676 23.5859C685.938 23.5859 689.069 24.8666 691.396 27.1522C693.723 29.4378 695.06 32.5457 695.118 35.8068C695.06 39.068 693.723 42.1759 691.396 44.4615C689.069 46.7471 685.938 48.0277 682.676 48.0277C679.415 48.0277 676.283 46.7471 673.956 44.4615C671.629 42.1759 670.293 39.068 670.234 35.8068ZM674.234 58.5388H690.978V130.115H674.234V58.5388Z" fill="black"/>
<path d="M707.109 108.151H723.849C723.849 114.295 729.849 118.595 738.441 118.595C744.737 118.595 748.733 115.219 748.733 110.147C748.901 108.455 748.448 106.759 747.459 105.375C746.47 103.991 745.013 103.013 743.357 102.623L724.925 97.5553C720.397 96.6525 716.343 94.1573 713.496 90.5219C710.65 86.8866 709.2 82.3517 709.409 77.7393C709.409 66.0673 720.317 56.6953 736.905 56.6953C755.645 56.6953 765.165 66.2193 765.165 78.9673H748.733C748.733 72.9673 744.125 69.4473 736.289 69.4473C730.453 69.4473 726.001 72.3633 726.001 76.8193C725.977 78.6131 726.576 80.3598 727.697 81.7606C728.817 83.1615 730.39 84.1296 732.145 84.4993L749.193 89.4113C758.869 92.1793 765.781 99.4113 765.781 108.611C765.781 122.283 755.781 131.959 737.521 131.959C719.089 131.959 707.109 121.203 707.109 108.151Z" fill="black"/>
<path d="M777.297 108.151H794.037C794.037 114.295 800.037 118.595 808.629 118.595C814.929 118.595 818.921 115.219 818.921 110.147C819.088 108.455 818.636 106.759 817.647 105.375C816.658 103.991 815.2 103.013 813.545 102.623L795.113 97.5553C790.586 96.6517 786.532 94.1561 783.686 90.5208C780.84 86.8856 779.391 82.3512 779.601 77.7393C779.601 66.0673 790.505 56.6953 807.093 56.6953C825.833 56.6953 835.357 66.2193 835.357 78.9673H818.921C818.921 72.9673 814.313 69.4473 806.481 69.4473C800.641 69.4473 796.189 72.3633 796.189 76.8193C796.164 78.6131 796.764 80.3598 797.884 81.7606C799.005 83.1615 800.577 84.1296 802.333 84.4993L819.381 89.4113C829.061 92.1793 835.969 99.4113 835.969 108.611C835.969 122.283 825.969 131.959 807.709 131.959C789.277 131.959 777.297 121.203 777.297 108.151Z" fill="black"/>
<path d="M917.204 99.8593H864.072C864.536 111.223 871.908 117.367 884.04 117.367C892.336 117.367 897.24 114.755 900.016 109.227H916.912C914.76 122.591 901.244 131.959 884.04 131.959C861.464 131.959 847.484 117.523 847.484 94.3273C847.484 71.4433 861.616 56.6953 883.428 56.6953C903.856 56.6953 917.68 70.5193 917.68 90.6433C917.68 93.8673 917.524 95.5553 917.204 99.8593ZM901.228 87.1073C901.076 76.0513 894.624 69.9073 883.104 69.9073C871.276 69.9073 864.212 76.9713 864.056 87.1073H901.228Z" fill="black"/>
<path d="M933.797 58.5327H950.537V68.5327C952.993 64.6322 956.463 61.4719 960.575 59.3888C964.687 57.3056 969.287 56.378 973.885 56.7047C991.085 56.7047 999.997 66.3807 999.997 85.1047V130.109H983.257V92.7967C983.257 77.5967 979.257 70.9887 967.589 70.9887C956.681 70.9887 950.537 78.1887 950.537 90.8007V130.121H933.797V58.5327Z" fill="black"/>
<g clip-path="url(#clip1_2044_5002)">
<g clip-path="url(#clip2_2044_5002)">
<path d="M-0.03125 74.3858C-0.03125 48.3511 -0.03125 35.3337 5.03545 25.3897C9.49224 16.6428 16.6037 9.5313 25.3507 5.07451C35.2946 0.0078125 48.312 0.0078125 74.3468 0.0078125H80.1908C106.226 0.0078125 119.243 0.0078125 129.187 5.07451C137.934 9.5313 145.045 16.6428 149.502 25.3897C154.569 35.3337 154.569 48.3511 154.569 74.3858V80.2299C154.569 106.265 154.569 119.282 149.502 129.226C145.045 137.973 137.934 145.084 129.187 149.541C119.243 154.608 106.225 154.608 80.1908 154.608H74.3467C48.312 154.608 35.2946 154.608 25.3507 149.541C16.6037 145.084 9.49224 137.973 5.03545 129.226C-0.03125 119.282 -0.03125 106.265 -0.03125 80.2298V74.3858Z" fill="#2CAE71"/>
<g filter="url(#filter0_d_2044_5002)">
<path d="M83.5928 16.7615C83.9291 16.7953 84.143 17.0725 84.261 17.2659C84.4078 17.5067 84.5359 17.8326 84.6502 18.208C84.8807 18.9656 85.0854 20.026 85.2545 21.2715C85.5934 23.7684 85.7985 27.0744 85.7678 30.3371C85.7006 37.451 84.1187 42.688 82.4635 46.5438C83.0689 46.1524 83.6327 45.7393 84.1046 45.2367L84.1075 45.2338C85.5937 43.6796 86.0459 42.9202 87.0528 41.1812C87.1107 41.0812 87.1751 40.9609 87.2459 40.8288C87.3148 40.7001 87.3897 40.561 87.4625 40.4359C87.5329 40.3151 87.6143 40.1856 87.6982 40.0856C87.7388 40.0374 87.7984 39.9732 87.8759 39.9226C87.9399 39.881 88.0753 39.8112 88.2446 39.8389C88.4798 39.8591 88.6583 39.9919 88.7696 40.1598C88.8771 40.3221 88.9259 40.5176 88.9502 40.6951C88.9996 41.0568 88.9688 41.5223 88.8944 42.0029C88.7445 42.9719 88.3964 44.1476 87.9824 44.9937C87.5231 45.9324 86.6695 47.2287 86.6651 47.2355C86.6651 47.2355 85.4762 48.6577 84.3506 49.8687C83.2087 51.097 82.6591 51.4758 82.1404 51.83C81.7992 52.0629 81.4872 52.2759 80.9934 52.7596C79.6928 54.0336 78.5487 56.3182 76.7844 61.4199L76.7815 61.4302L76.7778 61.4397L76.7771 61.4404C76.7771 61.4404 76.7757 61.4435 76.7749 61.4456C76.7732 61.4496 76.7707 61.4558 76.7675 61.4639C76.7608 61.481 76.7507 61.5074 76.7374 61.5418C76.7108 61.6104 76.6717 61.7132 76.6214 61.848C76.5205 62.1184 76.3752 62.5184 76.1992 63.0324C75.847 64.0606 75.3714 65.5459 74.8796 67.3691C73.8956 71.0177 72.6065 79.9536 72.5938 81.4001C72.5916 81.6463 72.5929 81.8906 72.5938 82.0837C72.662 82.0188 72.7322 81.9422 72.8016 81.8656C72.8129 81.8531 72.8241 81.8399 72.8354 81.8274C73.067 81.5722 73.3273 81.3443 73.5873 81.1166C73.8739 80.8656 74.1607 80.6148 74.409 80.3272C74.9087 79.7486 75.5165 79.1367 76.2491 78.3997C77.0547 77.5894 78.0115 76.6274 79.1415 75.3898C81.6362 72.6571 83.3544 70.2486 84.5459 68.5785C84.8703 68.1238 85.1559 67.7237 85.4072 67.3868C90.5366 60.5074 100.747 54.0508 104.334 56.4252C106.893 58.1189 105.705 64.041 104.52 69.6557C103.553 74.244 101.519 83.574 93.2848 91.1978C90.7739 93.5163 87.9396 95.4583 84.8712 96.9635C84.9868 98.7392 85.3598 100.489 85.9793 102.157C88.164 107.999 92.9455 111.29 96.8725 113.994C100.239 116.312 102.978 118.197 102.916 120.887C102.886 122.158 102.221 124.058 98.8544 126.332C98.2157 127.277 97.4399 128.123 96.5531 128.84C92.3614 132.212 86.7172 131.745 83.8285 131.505C77.6296 130.988 74.5296 130.731 73.1651 130.282C72.5859 130.082 71.9574 130.075 71.3741 130.262C69.5998 130.855 69.0292 133.283 68.2387 136.648C68.0723 137.356 67.8958 138.105 67.6968 138.887C67.3152 140.389 66.8095 141.855 66.3038 143.322C65.8966 144.502 65.4899 145.684 65.1473 146.884C65.134 146.924 62.2456 155.576 58.4314 164.746C34.7051 163.175 16.7924 148.09 14.1211 145.419C14.1342 145.414 16.7414 144.462 18.0077 143.847C23.5999 141.079 25.8051 136.502 33.6607 120.203L33.7202 120.08C35.1262 117.163 38.1352 110.923 43.349 100.155C41.6415 98.8806 40.0504 97.4568 38.5944 95.9009C37.3236 94.5424 27.9482 84.2136 28.9032 70.2131C29.0183 68.5251 29.6409 59.4359 33.765 58.2918C36.1164 57.6397 38.5693 59.7281 40.9324 61.754C42.1525 62.7999 46.0581 66.3464 54.0367 80.0805L54.0543 80.1106C54.4607 80.8099 55.1947 81.801 55.3958 81.801C55.597 81.801 55.9245 81.8223 56.0489 81.801C56.1923 81.7764 56.2252 81.52 56.2205 81.4074C56.2142 81.2589 56.2042 81.176 56.186 81.0285C56.1439 80.6888 56.0144 80.1703 56.0127 80.1635C56.0127 80.1635 54.6571 74.77 53.8604 71.9475C53.1986 70.0057 52.2201 67.3549 50.8476 64.2858C48.8503 59.9008 46.5373 55.6655 43.9276 51.6148L43.9269 51.6134C42.5458 49.4539 40.672 46.6953 38.2691 43.6022C37.9909 43.3485 37.6584 43.1608 37.2969 43.0544C36.4986 42.8316 35.7506 43.1113 35.1249 43.3555C34.9336 43.4301 34.7209 43.5144 34.5411 43.5537C34.4008 43.5844 34.0852 43.6327 33.8546 43.4025L33.8098 43.3525C33.7084 43.2276 33.673 43.0844 33.6622 42.9714C33.6511 42.8558 33.6624 42.7389 33.6835 42.6307C33.7258 42.4141 33.818 42.1766 33.9419 41.9456C34.1892 41.4848 34.6009 40.9764 35.1388 40.6408C35.2978 40.5416 35.461 40.4625 35.5963 40.3963C35.9727 40.212 36.1127 40.1209 36.1742 39.9586C36.2175 39.8089 36.2393 39.6534 36.2366 39.4975V39.496C36.2341 39.2981 36.1972 39.1016 36.1287 38.9159L36.1279 38.913C34.6279 34.7592 33.8276 31.5073 33.4022 29.2886C33.1896 28.1793 33.0709 27.3278 33.005 26.7516C32.9721 26.4637 32.9518 26.2445 32.9404 26.0958C32.9346 26.0217 32.9309 25.9649 32.9286 25.9262C32.9275 25.9069 32.9269 25.8918 32.9264 25.8814C32.9261 25.8763 32.9258 25.8719 32.9257 25.869V25.8572C32.9239 25.79 32.9216 25.7216 32.9198 25.6523C32.8916 24.5874 32.8562 23.2616 32.9565 22.1894C33.0063 21.6568 33.0922 21.1502 33.2473 20.7597C33.3945 20.3892 33.6696 19.9709 34.1769 19.9248L34.2966 19.9234C34.5663 19.9423 34.7664 20.1086 34.898 20.278C35.0445 20.4668 35.1614 20.7233 35.2644 21.0042C35.4725 21.5715 35.6799 22.4029 35.9355 23.4215C36.5042 25.6877 37.3436 29.0317 39.0247 33.0812L39.3287 33.7773C40.8649 37.2521 42.6489 40.6126 44.6663 43.8328L45.0562 44.4334C45.4617 45.0456 45.9373 45.7296 46.6996 46.825L46.729 46.8669C48.4228 49.3007 49.3661 50.5604 49.9261 51.2029C50.2094 51.5279 50.3692 51.6648 50.457 51.7198C50.4709 51.7285 50.4817 51.7335 50.4886 51.7367C50.5733 51.7205 50.6854 51.6624 50.819 51.5047C50.956 51.3427 51.0921 51.1045 51.2214 50.7939C51.48 50.1723 51.6786 49.3429 51.8272 48.4786C52.1231 46.7564 52.2057 44.9929 52.2171 44.7066C52.2874 42.9425 52.1748 41.5301 52.0937 40.513C52.0516 39.9841 52.0151 39.532 52.024 39.2045C52.0284 39.0427 52.044 38.8715 52.0945 38.7228C52.1463 38.5701 52.2629 38.3677 52.5101 38.2888C52.7051 38.2267 52.8867 38.2746 53.0109 38.3299C53.138 38.3867 53.2561 38.4726 53.3604 38.5642C53.5705 38.7488 53.7908 39.0148 54.0051 39.3227C54.4368 39.9431 54.8913 40.8038 55.2328 41.7246C56.6423 45.5239 56.0041 50.0201 55.5486 53.2773C55.3866 54.4355 55.2491 55.4258 55.2189 56.2012L55.2181 56.2078C55.1722 57.051 55.3157 57.894 55.6382 58.6743L55.7652 58.949C56.8678 61.362 57.8394 63.844 58.6671 66.3639L59.0137 67.447L59.0145 67.4492C59.4911 69.012 60.3606 72.1389 61.1483 75.1115C61.9329 78.0727 62.4847 80.1635 62.4847 80.1635C62.4847 80.1635 62.6745 81.1136 62.9958 81.1776C63.3718 81.2525 63.431 81.2309 64.1237 81.2525C64.885 81.2761 64.497 81.2525 65.6246 81.2525C66.7525 81.2525 66.7443 75.0337 67.3384 72.0047L67.5998 70.6837C68.2469 67.4677 69.1942 63.3277 71.2052 58.5466C72.5431 55.3654 74.8043 50.8263 75.2189 49.9972C75.4891 49.4565 75.7457 48.9502 75.9855 48.4764C76.8912 46.687 77.5486 45.3844 77.8881 44.3754C78.2269 43.3679 78.2046 42.7769 77.9174 42.3289C77.6609 41.9293 77.2132 41.6718 76.628 41.5036C76.0427 41.3354 75.386 41.2743 74.7739 41.2187C74.3649 41.1815 73.9499 41.145 73.635 41.0681C73.4777 41.0297 73.3062 40.9726 73.1621 40.875C73.0067 40.7697 72.8625 40.6004 72.8332 40.3573C72.7989 40.0695 72.9433 39.8357 73.0777 39.6825C73.2178 39.5229 73.4073 39.3798 73.6064 39.2537C74.0079 38.9994 74.5399 38.7567 75.0632 38.5473C76.1161 38.1261 77.2194 37.8047 77.3865 37.7565C78.3393 37.4824 79.3112 37.2791 80.2936 37.1485C80.9939 34.1954 81.5218 31.2036 81.8701 28.1886C82.2209 25.1651 82.295 22.7203 82.3504 20.9022C82.387 19.6987 82.4156 18.7345 82.5178 18.0751C82.5683 17.7492 82.6441 17.4455 82.7792 17.2138C82.929 16.957 83.1757 16.7578 83.5245 16.7578L83.5928 16.7615Z" fill="url(#paint0_linear_2044_5002)"/>
<path opacity="0.4" d="M50.4056 117.166C49.9416 125.62 51.0433 132.113 52.1828 136.566C53.4219 141.408 54.9567 144.82 54.8931 150.303C54.8493 154.101 53.3487 158.811 52.1546 161.976C54.4742 162.421 56.8303 162.758 59.2231 162.987C62.8719 154.215 65.4991 146.04 65.4991 146.04C66.2322 143.472 67.2754 140.996 67.9329 138.408C69.0247 134.112 69.3912 130.86 71.4422 130.176C71.9974 129.997 72.5956 130.003 73.1471 130.193C73.1489 130.193 73.151 130.19 73.1531 130.193C64.6545 127.693 56.8624 123.231 50.4056 117.166Z" fill="url(#paint1_linear_2044_5002)"/>
</g>
</g>
</g>
</g>
<defs>
<filter id="filter0_d_2044_5002" x="-10.582" y="-3.80128" width="140.017" height="193.853" filterUnits="userSpaceOnUse" color-interpolation-filters="sRGB">
<feFlood flood-opacity="0" result="BackgroundImageFix"/>
<feColorMatrix in="SourceAlpha" type="matrix" values="0 0 0 0 0 0 0 0 0 0 0 0 0 0 0 0 0 0 127 0" result="hardAlpha"/>
<feOffset dx="0.647249" dy="2.37325"/>
<feGaussianBlur stdDeviation="11.4662"/>
<feComposite in2="hardAlpha" operator="out"/>
<feColorMatrix type="matrix" values="0 0 0 0 0 0 0 0 0 0.162091 0 0 0 0 0.0969886 0 0 0 0.25 0"/>
<feBlend mode="normal" in2="BackgroundImageFix" result="effect1_dropShadow_2044_5002"/>
<feBlend mode="normal" in="SourceGraphic" in2="effect1_dropShadow_2044_5002" result="shape"/>
</filter>
<linearGradient id="paint0_linear_2044_5002" x1="45.4482" y1="14.9965" x2="57.0571" y2="154.945" gradientUnits="userSpaceOnUse">
<stop offset="0.332617" stop-color="white" stop-opacity="0.98"/>
<stop offset="1" stop-color="white" stop-opacity="0.87"/>
</linearGradient>
<linearGradient id="paint1_linear_2044_5002" x1="56.1346" y1="118.671" x2="58.7113" y2="156.032" gradientUnits="userSpaceOnUse">
<stop stop-color="#29A564" stop-opacity="0.49"/>
<stop offset="1" stop-color="#29A564" stop-opacity="0"/>
</linearGradient>
<clipPath id="clip0_2044_5002">
<rect width="1000" height="154.552" fill="white"/>
</clipPath>
<clipPath id="clip1_2044_5002">
<path d="M-0.03125 39.8514C-0.03125 17.8464 17.8074 0.0078125 39.8124 0.0078125H114.725C136.73 0.0078125 154.569 17.8464 154.569 39.8515V114.764C154.569 136.769 136.73 154.608 114.725 154.608H39.8124C17.8073 154.608 -0.03125 136.769 -0.03125 114.764V39.8514Z" fill="white"/>
</clipPath>
<clipPath id="clip2_2044_5002">
<path d="M-0.03125 74.3858C-0.03125 48.3511 -0.03125 35.3337 5.03545 25.3897C9.49224 16.6428 16.6037 9.5313 25.3507 5.07451C35.2946 0.0078125 48.312 0.0078125 74.3468 0.0078125H80.1908C106.226 0.0078125 119.243 0.0078125 129.187 5.07451C137.934 9.5313 145.045 16.6428 149.502 25.3897C154.569 35.3337 154.569 48.3511 154.569 74.3858V80.2299C154.569 106.265 154.569 119.282 149.502 129.226C145.045 137.973 137.934 145.084 129.187 149.541C119.243 154.608 106.225 154.608 80.1908 154.608H74.3467C48.312 154.608 35.2946 154.608 25.3507 149.541C16.6037 145.084 9.49224 137.973 5.03545 129.226C-0.03125 119.282 -0.03125 106.265 -0.03125 80.2298V74.3858Z" fill="white"/>
</clipPath>
</defs>
</svg>
